<?xml version="1.0" encoding="UTF-8"?><svg id="Layer_2" xmlns="http://www.w3.org/2000/svg" viewBox="0 0 155.91 33.79"><g id="Logo"><path d="M147.07,10.91h-4.45v12.58h4.45v-6.51c0-1.57.51-2.92,2.32-2.92,2.23,0,2.02,2.12,2.02,3.33v6.11h4.49v-7.78c0-3.08-1.37-5.2-4.75-5.2-1.77,0-3.03.5-4.04,2.02h-.05v-1.62Z" style="fill:#fff; fill-rule:evenodd; stroke-width:0px;"/><path d="M131.82,10.91h-4.44v12.58h4.44v-6.51c0-1.57.5-2.92,2.33-2.92,2.22,0,2.02,2.12,2.02,3.33v6.11h4.49v-7.78c0-3.08-1.36-5.2-4.74-5.2-1.77,0-3.03.5-4.04,2.02h-.06v-1.62Z" style="fill:#fff; fill-rule:evenodd; stroke-width:0px;"/><path d="M125.56,10.91h-4.45v1.21c-.96-1.06-2.47-1.61-3.88-1.61-3.74,0-6.31,3.08-6.31,6.71s2.62,6.72,6.36,6.72c1.47,0,2.98-.55,3.79-1.82h.05v1.36h4.45v-12.58ZM118.49,14.39c1.81,0,2.87,1.26,2.87,2.83s-1.06,2.83-2.87,2.83-2.89-1.21-2.89-2.83,1.06-2.83,2.89-2.83" style="fill:#fff; fill-rule:evenodd; stroke-width:0px;"/><path d="M93.13,10.91h-4.44v12.58h4.44v-6.01c0-1.36,0-3.53,1.97-3.53s2.02,2.17,2.02,3.53v6.01h4.45v-6.01c0-1.46.1-3.43,2.17-3.43,1.88,0,1.82,2.17,1.82,3.43v6.01h4.45v-7.97c0-2.93-1.06-5-4.29-5-1.72,0-3.38.81-4.25,2.42-.9-1.66-2.48-2.42-4.29-2.42-1.61,0-2.92.6-3.99,1.97h-.05v-1.57Z" style="fill:#fff; fill-rule:evenodd; stroke-width:0px;"/><path d="M73.54,10.91v7.58c0,4.14,2.93,5.46,6.72,5.46s6.72-1.31,6.72-5.46v-7.58h-4.5v6.72c0,1.61-.41,2.73-2.22,2.73s-2.23-1.12-2.23-2.73v-6.72h-4.49Z" style="fill:#fff; fill-rule:evenodd; stroke-width:0px;"/><path d="M71.52,10.91h-4.45v1.21c-.96-1.06-2.47-1.61-3.89-1.61-3.73,0-6.31,3.08-6.31,6.71s2.62,6.72,6.36,6.72c1.47,0,2.98-.55,3.79-1.82h.05v1.36h4.45v-12.58ZM64.34,14.39c1.82,0,2.88,1.26,2.88,2.83s-1.07,2.83-2.88,2.83-2.88-1.21-2.88-2.83,1.06-2.83,2.88-2.83" style="fill:#fff; fill-rule:evenodd; stroke-width:0px;"/><path d="M52.07,10.91h-4.45v12.58h4.45v-5.05c0-2.17.6-3.79,3.08-3.79.71,0,1.31.05,1.91.41v-4.29h-.85c-1.77,0-3.24.65-4.09,2.22h-.05v-2.08Z" style="fill:#fff; fill-rule:evenodd; stroke-width:0px;"/><polygon points="44.85 14.6 47.37 14.6 47.37 10.91 44.85 10.91 44.85 7.12 40.4 7.12 40.4 10.91 38.95 10.91 38.95 14.6 40.4 14.6 40.4 23.48 44.85 23.48 44.85 14.6" style="fill:#fff; fill-rule:evenodd; stroke-width:0px;"/><path d="M38.19,11.31c-1.32-.6-2.73-.81-4.15-.81-2.78,0-5.56,1.36-5.56,4.44,0,2.27,1.42,2.98,2.78,3.34,1.42.35,2.83.4,2.83,1.41,0,.66-.86.96-1.41.96-1.11,0-2.63-.66-3.53-1.31l-1.62,3.13c1.52.96,3.28,1.47,5.11,1.47,2.93,0,5.91-1.36,5.91-4.7,0-2.32-1.57-3.33-3.64-3.73-.61-.11-2.02-.25-2.02-1.12,0-.6.91-.85,1.41-.85.76,0,1.72.25,2.38.6l1.52-2.83Z" style="fill:#fff; fill-rule:evenodd; stroke-width:0px;"/><path d="M23.94,0c-6.46,4.29-12.98,8.74-19.49,13.03-2.88,2.22-2.78,5.55-.81,8.38L23.94,7.83V0Z" style="fill:#fff; fill-rule:evenodd; stroke-width:0px;"/><path d="M0,33.79c6.47-4.29,12.98-8.74,19.5-13.03,2.88-2.22,2.78-5.55.81-8.38L0,25.96v7.83Z" style="fill:#fff; fill-rule:evenodd; stroke-width:0px;"/></g></svg>