<?xml version="1.0" encoding="UTF-8"?><svg id="Layer_2" xmlns="http://www.w3.org/2000/svg" xmlns:xlink="http://www.w3.org/1999/xlink" viewBox="0 0 477.07 482.2"><defs><linearGradient id="linear-gradient" x1="-32.97" y1="818.12" x2="-32.97" y2="277.74" gradientTransform="translate(266.74 -229.27) scale(.85)" gradientUnits="userSpaceOnUse"><stop offset="0" stop-color="#20b038"/><stop offset="1" stop-color="#60d66a"/></linearGradient><linearGradient id="linear-gradient-2" x1="-23.28" y1="818.49" x2="-23.28" y2="258.73" gradientTransform="translate(258.49 -221.3) scale(.85)" gradientUnits="userSpaceOnUse"><stop offset="0" stop-color="#f9f9f9"/><stop offset="1" stop-color="#fff"/></linearGradient></defs><g id="Layer_1-2"><path id="e" d="M1.99,239.79c-.02,41.96,10.92,82.93,31.7,119.03L0,482.2l125.92-33.11c34.69,18.97,73.76,28.97,113.51,28.98h.1c130.91,0,237.48-106.82,237.53-238.09.02-63.62-24.66-123.44-69.51-168.44C362.71,26.54,303.07,1.75,239.53,1.72,108.6,1.72,2.05,108.52,1.99,239.79Z" style="fill:#000; stroke-width:0px;"/><g id="e-2"><path d="M1.99,239.79c-.02,41.96,10.92,82.93,31.7,119.03L0,482.2l125.92-33.11c34.69,18.97,73.76,28.97,113.51,28.98h.1c130.91,0,237.48-106.82,237.53-238.09.02-63.62-24.66-123.44-69.51-168.44C362.71,26.54,303.07,1.75,239.53,1.72,108.6,1.72,2.05,108.52,1.99,239.79Z" style="fill:#000; opacity:.2; stroke-width:0px;"/></g><path d="M10.52,237.32c-.01,40.36,10.53,79.77,30.59,114.5l-32.5,118.68,121.45-31.85c33.46,18.24,71.14,27.86,109.48,27.88h.1c126.26,0,229.05-102.75,229.1-229.04.03-61.2-23.79-118.74-67.04-162.03C358.44,32.17,300.92,8.32,239.63,8.29,113.35,8.29,10.57,111.03,10.52,237.32" style="fill:url(#linear-gradient); stroke-width:0px;"/><path d="M2.34,237.24c-.02,41.81,10.91,82.63,31.68,118.61L.35,478.78l125.81-32.99c34.66,18.9,73.69,28.87,113.41,28.88h.1c130.8,0,237.27-106.44,237.33-237.25.02-63.4-24.64-123.01-69.45-167.85C362.74,24.74,303.15.03,239.67,0,108.85,0,2.39,106.43,2.34,237.24h0ZM77.26,349.65l-4.7-7.46c-19.75-31.4-30.17-67.68-30.15-104.94.04-108.73,88.53-197.18,197.33-197.18,52.69.02,102.21,20.56,139.46,57.83,37.24,37.27,57.74,86.82,57.72,139.51-.05,108.73-88.53,197.2-197.25,197.2h-.08c-35.4-.02-70.12-9.52-100.4-27.49l-7.21-4.27-74.66,19.57,19.93-72.77Z" style="fill:url(#linear-gradient-2); stroke-width:0px;"/><path d="M180.35,138.06c-4.44-9.87-9.12-10.07-13.34-10.25-3.46-.15-7.41-.14-11.36-.14s-10.38,1.48-15.81,7.42c-5.44,5.93-20.76,20.28-20.76,49.45s21.25,57.37,24.21,61.33c2.96,3.95,41.02,65.74,101.3,89.51,50.09,19.75,60.29,15.82,71.16,14.84,10.87-.99,35.08-14.34,40.03-28.19,4.94-13.85,4.94-25.71,3.46-28.19-1.48-2.47-5.44-3.95-11.37-6.92-5.93-2.97-35.08-17.31-40.52-19.29-5.44-1.98-9.39-2.96-13.34,2.97-3.95,5.93-15.31,19.28-18.77,23.24-3.46,3.96-6.92,4.46-12.85,1.49-5.93-2.97-25.03-9.23-47.69-29.43-17.63-15.72-29.53-35.13-32.99-41.06-3.46-5.93-.37-9.14,2.6-12.1,2.66-2.66,5.93-6.92,8.9-10.38,2.96-3.46,3.95-5.93,5.92-9.89,1.98-3.96.99-7.42-.49-10.39-1.48-2.97-13.01-32.29-18.28-44.02" style="fill:#fff; fill-rule:evenodd; stroke-width:0px;"/></g></svg>